<svg xmlns="http://www.w3.org/2000/svg" width="900" height="520" viewBox="0 0 900 520"><rect width="100%" height="100%" fill="white"/><text x="450" y="34" text-anchor="middle" font-family="Arial" font-size="24" font-weight="700" fill="#111">Latency vs Fragment Duration</text><rect x="92" y="62" width="766" height="362" fill="#fbfbfb" stroke="#bdbdbd"/><line x1="92" y1="424.0" x2="858" y2="424.0" stroke="#e4e4e4"/><text x="80" y="429.0" text-anchor="end" font-family="Arial" font-size="14" fill="#222">0</text><line x1="92" y1="383.8" x2="858" y2="383.8" stroke="#e4e4e4"/><text x="80" y="388.8" text-anchor="end" font-family="Arial" font-size="14" fill="#222">1000</text><line x1="92" y1="343.6" x2="858" y2="343.6" stroke="#e4e4e4"/><text x="80" y="348.6" text-anchor="end" font-family="Arial" font-size="14" fill="#222">2000</text><line x1="92" y1="303.3" x2="858" y2="303.3" stroke="#e4e4e4"/><text x="80" y="308.3" text-anchor="end" font-family="Arial" font-size="14" fill="#222">3000</text><line x1="92" y1="263.1" x2="858" y2="263.1" stroke="#e4e4e4"/><text x="80" y="268.1" text-anchor="end" font-family="Arial" font-size="14" fill="#222">4000</text><line x1="92" y1="222.9" x2="858" y2="222.9" stroke="#e4e4e4"/><text x="80" y="227.9" text-anchor="end" font-family="Arial" font-size="14" fill="#222">5000</text><line x1="92" y1="182.7" x2="858" y2="182.7" stroke="#e4e4e4"/><text x="80" y="187.7" text-anchor="end" font-family="Arial" font-size="14" fill="#222">6000</text><line x1="92" y1="142.4" x2="858" y2="142.4" stroke="#e4e4e4"/><text x="80" y="147.4" text-anchor="end" font-family="Arial" font-size="14" fill="#222">7000</text><line x1="92" y1="102.2" x2="858" y2="102.2" stroke="#e4e4e4"/><text x="80" y="107.2" text-anchor="end" font-family="Arial" font-size="14" fill="#222">8000</text><line x1="92" y1="62.0" x2="858" y2="62.0" stroke="#e4e4e4"/><text x="80" y="67.0" text-anchor="end" font-family="Arial" font-size="14" fill="#222">9000</text><line x1="92.0" y1="424" x2="92.0" y2="431" stroke="#444"/><text x="92.0" y="452" text-anchor="middle" font-family="Arial" font-size="14" fill="#222">0.033</text><line x1="201.4" y1="424" x2="201.4" y2="431" stroke="#444"/><text x="201.4" y="452" text-anchor="middle" font-family="Arial" font-size="14" fill="#222">0.066</text><line x1="310.9" y1="424" x2="310.9" y2="431" stroke="#444"/><text x="310.9" y="452" text-anchor="middle" font-family="Arial" font-size="14" fill="#222">0.1</text><line x1="420.3" y1="424" x2="420.3" y2="431" stroke="#444"/><text x="420.3" y="452" text-anchor="middle" font-family="Arial" font-size="14" fill="#222">0.2</text><line x1="529.7" y1="424" x2="529.7" y2="431" stroke="#444"/><text x="529.7" y="452" text-anchor="middle" font-family="Arial" font-size="14" fill="#222">0.5</text><line x1="639.1" y1="424" x2="639.1" y2="431" stroke="#444"/><text x="639.1" y="452" text-anchor="middle" font-family="Arial" font-size="14" fill="#222">1</text><line x1="748.6" y1="424" x2="748.6" y2="431" stroke="#444"/><text x="748.6" y="452" text-anchor="middle" font-family="Arial" font-size="14" fill="#222">2</text><line x1="858.0" y1="424" x2="858.0" y2="431" stroke="#444"/><text x="858.0" y="452" text-anchor="middle" font-family="Arial" font-size="14" fill="#222">4</text><polyline fill="none" stroke="#2563eb" stroke-width="4" points="92.0,222.9 201.4,202.8 310.9,202.8 420.3,202.8 529.7,182.7 639.1,182.7 748.6,182.7 858.0,62.0"/><circle cx="92.0" cy="222.9" r="6" fill="#2563eb"/><text x="92.0" y="210.9" text-anchor="middle" font-family="Arial" font-size="13" fill="#111">5000</text><circle cx="201.4" cy="202.8" r="6" fill="#2563eb"/><text x="201.4" y="190.8" text-anchor="middle" font-family="Arial" font-size="13" fill="#111">5500</text><circle cx="310.9" cy="202.8" r="6" fill="#2563eb"/><text x="310.9" y="190.8" text-anchor="middle" font-family="Arial" font-size="13" fill="#111">5500</text><circle cx="420.3" cy="202.8" r="6" fill="#2563eb"/><text x="420.3" y="190.8" text-anchor="middle" font-family="Arial" font-size="13" fill="#111">5500</text><circle cx="529.7" cy="182.7" r="6" fill="#2563eb"/><text x="529.7" y="170.7" text-anchor="middle" font-family="Arial" font-size="13" fill="#111">6000</text><circle cx="639.1" cy="182.7" r="6" fill="#2563eb"/><text x="639.1" y="170.7" text-anchor="middle" font-family="Arial" font-size="13" fill="#111">6000</text><circle cx="748.6" cy="182.7" r="6" fill="#2563eb"/><text x="748.6" y="170.7" text-anchor="middle" font-family="Arial" font-size="13" fill="#111">6000</text><circle cx="858.0" cy="62.0" r="6" fill="#2563eb"/><text x="858.0" y="50.0" text-anchor="middle" font-family="Arial" font-size="13" fill="#111">9000</text><text x="450" y="496" text-anchor="middle" font-family="Arial" font-size="16" fill="#222">Fragment duration (s)</text><text transform="translate(22 243) rotate(-90)" text-anchor="middle" font-family="Arial" font-size="16" fill="#222">Latency (ms)</text></svg>