<svg xmlns="http://www.w3.org/2000/svg" width="760" height="430" viewBox="0 0 760 430"><rect width="100%" height="100%" fill="white"/><text x="380" y="25" text-anchor="middle" font-family="Arial" font-size="20" font-weight="700">Latency vs Fragment Duration</text><line x1="70" y1="365" x2="730" y2="365" stroke="#222"/><line x1="70" y1="45" x2="70" y2="365" stroke="#222"/><line x1="70" y1="365" x2="730" y2="365" stroke="#e6e6e6"/><text x="60" y="369" text-anchor="end" font-family="Arial" font-size="12">0</text><line x1="70" y1="333" x2="730" y2="333" stroke="#e6e6e6"/><text x="60" y="337" text-anchor="end" font-family="Arial" font-size="12">1000</text><line x1="70" y1="301" x2="730" y2="301" stroke="#e6e6e6"/><text x="60" y="305" text-anchor="end" font-family="Arial" font-size="12">2000</text><line x1="70" y1="269" x2="730" y2="269" stroke="#e6e6e6"/><text x="60" y="273" text-anchor="end" font-family="Arial" font-size="12">3000</text><line x1="70" y1="237" x2="730" y2="237" stroke="#e6e6e6"/><text x="60" y="241" text-anchor="end" font-family="Arial" font-size="12">4000</text><line x1="70" y1="205" x2="730" y2="205" stroke="#e6e6e6"/><text x="60" y="209" text-anchor="end" font-family="Arial" font-size="12">5000</text><line x1="70" y1="173" x2="730" y2="173" stroke="#e6e6e6"/><text x="60" y="177" text-anchor="end" font-family="Arial" font-size="12">6000</text><line x1="70" y1="141" x2="730" y2="141" stroke="#e6e6e6"/><text x="60" y="145" text-anchor="end" font-family="Arial" font-size="12">7000</text><line x1="70" y1="109" x2="730" y2="109" stroke="#e6e6e6"/><text x="60" y="113" text-anchor="end" font-family="Arial" font-size="12">8000</text><line x1="70" y1="77" x2="730" y2="77" stroke="#e6e6e6"/><text x="60" y="81" text-anchor="end" font-family="Arial" font-size="12">9000</text><line x1="70" y1="45" x2="730" y2="45" stroke="#e6e6e6"/><text x="60" y="49" text-anchor="end" font-family="Arial" font-size="12">10000</text><line x1="70" y1="365" x2="70" y2="371" stroke="#222"/><text x="70" y="389" text-anchor="middle" font-family="Arial" font-size="12">0.033</text><line x1="75.4902949331989" y1="365" x2="75.4902949331989" y2="371" stroke="#222"/><text x="75.4902949331989" y="389" text-anchor="middle" font-family="Arial" font-size="12">0.066</text><line x1="81.14696244013108" y1="365" x2="81.14696244013108" y2="371" stroke="#222"/><text x="81.14696244013108" y="389" text-anchor="middle" font-family="Arial" font-size="12">0.1</text><line x1="97.78421981346105" y1="365" x2="97.78421981346105" y2="371" stroke="#222"/><text x="97.78421981346105" y="389" text-anchor="middle" font-family="Arial" font-size="12">0.2</text><line x1="147.69599193345096" y1="365" x2="147.69599193345096" y2="371" stroke="#222"/><text x="147.69599193345096" y="389" text-anchor="middle" font-family="Arial" font-size="12">0.5</text><line x1="230.88227880010083" y1="365" x2="230.88227880010083" y2="371" stroke="#222"/><text x="230.88227880010083" y="389" text-anchor="middle" font-family="Arial" font-size="12">1</text><line x1="397.25485253340054" y1="365" x2="397.25485253340054" y2="371" stroke="#222"/><text x="397.25485253340054" y="389" text-anchor="middle" font-family="Arial" font-size="12">2</text><line x1="730" y1="365" x2="730" y2="371" stroke="#222"/><text x="730" y="389" text-anchor="middle" font-family="Arial" font-size="12">4</text><polyline points="70.0,157.0 75.5,157.0 81.1,157.0 97.8,173.0 147.7,141.0 230.9,141.0 397.3,141.0 730.0,45.0" fill="none" stroke="#1f77b4" stroke-width="3"/><circle cx="70" cy="157" r="4" fill="#d62728"><title>frag_duration: 0.033, latency_ms: 6500</title></circle><circle cx="75.4902949331989" cy="157" r="4" fill="#d62728"><title>frag_duration: 0.066, latency_ms: 6500</title></circle><circle cx="81.14696244013108" cy="157" r="4" fill="#d62728"><title>frag_duration: 0.1, latency_ms: 6500</title></circle><circle cx="97.78421981346105" cy="173" r="4" fill="#d62728"><title>frag_duration: 0.2, latency_ms: 6000</title></circle><circle cx="147.69599193345096" cy="141" r="4" fill="#d62728"><title>frag_duration: 0.5, latency_ms: 7000</title></circle><circle cx="230.88227880010083" cy="141" r="4" fill="#d62728"><title>frag_duration: 1, latency_ms: 7000</title></circle><circle cx="397.25485253340054" cy="141" r="4" fill="#d62728"><title>frag_duration: 2, latency_ms: 7000</title></circle><circle cx="730" cy="45" r="4" fill="#d62728"><title>frag_duration: 4, latency_ms: 10000</title></circle><text x="380" y="412" text-anchor="middle" font-family="Arial" font-size="14">frag_duration</text><text x="18" y="215" transform="rotate(-90 18 215)" text-anchor="middle" font-family="Arial" font-size="14">latency_ms</text></svg>