<svg xmlns="http://www.w3.org/2000/svg" width="760" height="430" viewBox="0 0 760 430"><rect width="100%" height="100%" fill="white"/><text x="380" y="25" text-anchor="middle" font-family="Arial" font-size="20" font-weight="700">Latency vs Segment Duration</text><line x1="70" y1="365" x2="730" y2="365" stroke="#222"/><line x1="70" y1="45" x2="70" y2="365" stroke="#222"/><line x1="70" y1="365" x2="730" y2="365" stroke="#e6e6e6"/><text x="60" y="369" text-anchor="end" font-family="Arial" font-size="12">0</text><line x1="70" y1="329.44444444444446" x2="730" y2="329.44444444444446" stroke="#e6e6e6"/><text x="60" y="333.44444444444446" text-anchor="end" font-family="Arial" font-size="12">1000</text><line x1="70" y1="293.8888888888889" x2="730" y2="293.8888888888889" stroke="#e6e6e6"/><text x="60" y="297.8888888888889" text-anchor="end" font-family="Arial" font-size="12">2000</text><line x1="70" y1="258.33333333333337" x2="730" y2="258.33333333333337" stroke="#e6e6e6"/><text x="60" y="262.33333333333337" text-anchor="end" font-family="Arial" font-size="12">3000</text><line x1="70" y1="222.77777777777777" x2="730" y2="222.77777777777777" stroke="#e6e6e6"/><text x="60" y="226.77777777777777" text-anchor="end" font-family="Arial" font-size="12">4000</text><line x1="70" y1="187.22222222222223" x2="730" y2="187.22222222222223" stroke="#e6e6e6"/><text x="60" y="191.22222222222223" text-anchor="end" font-family="Arial" font-size="12">5000</text><line x1="70" y1="151.66666666666669" x2="730" y2="151.66666666666669" stroke="#e6e6e6"/><text x="60" y="155.66666666666669" text-anchor="end" font-family="Arial" font-size="12">6000</text><line x1="70" y1="116.11111111111111" x2="730" y2="116.11111111111111" stroke="#e6e6e6"/><text x="60" y="120.11111111111111" text-anchor="end" font-family="Arial" font-size="12">7000</text><line x1="70" y1="80.55555555555554" x2="730" y2="80.55555555555554" stroke="#e6e6e6"/><text x="60" y="84.55555555555554" text-anchor="end" font-family="Arial" font-size="12">8000</text><line x1="70" y1="45" x2="730" y2="45" stroke="#e6e6e6"/><text x="60" y="49" text-anchor="end" font-family="Arial" font-size="12">9000</text><line x1="70" y1="365" x2="70" y2="371" stroke="#222"/><text x="70" y="389" text-anchor="middle" font-family="Arial" font-size="12">1</text><line x1="202" y1="365" x2="202" y2="371" stroke="#222"/><text x="202" y="389" text-anchor="middle" font-family="Arial" font-size="12">2</text><line x1="334" y1="365" x2="334" y2="371" stroke="#222"/><text x="334" y="389" text-anchor="middle" font-family="Arial" font-size="12">3</text><line x1="466" y1="365" x2="466" y2="371" stroke="#222"/><text x="466" y="389" text-anchor="middle" font-family="Arial" font-size="12">4</text><line x1="598" y1="365" x2="598" y2="371" stroke="#222"/><text x="598" y="389" text-anchor="middle" font-family="Arial" font-size="12">5</text><line x1="730" y1="365" x2="730" y2="371" stroke="#222"/><text x="730" y="389" text-anchor="middle" font-family="Arial" font-size="12">6</text><polyline points="70.0,205.0 70.0,205.0 70.0,205.0 202.0,80.6 202.0,116.1 202.0,151.7 334.0,169.4 466.0,133.9 598.0,80.6 730.0,62.8" fill="none" stroke="#1f77b4" stroke-width="3"/><circle cx="70" cy="205" r="4" fill="#d62728"><title>seg_duration: 1, latency_ms: 4500</title></circle><circle cx="70" cy="205" r="4" fill="#d62728"><title>seg_duration: 1, latency_ms: 4500</title></circle><circle cx="70" cy="205" r="4" fill="#d62728"><title>seg_duration: 1, latency_ms: 4500</title></circle><circle cx="202" cy="80.55555555555554" r="4" fill="#d62728"><title>seg_duration: 2, latency_ms: 8000</title></circle><circle cx="202" cy="116.11111111111111" r="4" fill="#d62728"><title>seg_duration: 2, latency_ms: 7000</title></circle><circle cx="202" cy="151.66666666666669" r="4" fill="#d62728"><title>seg_duration: 2, latency_ms: 6000</title></circle><circle cx="334" cy="169.44444444444443" r="4" fill="#d62728"><title>seg_duration: 3, latency_ms: 5500</title></circle><circle cx="466" cy="133.88888888888889" r="4" fill="#d62728"><title>seg_duration: 4, latency_ms: 6500</title></circle><circle cx="598" cy="80.55555555555554" r="4" fill="#d62728"><title>seg_duration: 5, latency_ms: 8000</title></circle><circle cx="730" cy="62.77777777777777" r="4" fill="#d62728"><title>seg_duration: 6, latency_ms: 8500</title></circle><text x="380" y="412" text-anchor="middle" font-family="Arial" font-size="14">seg_duration</text><text x="18" y="215" transform="rotate(-90 18 215)" text-anchor="middle" font-family="Arial" font-size="14">latency_ms</text></svg>