<svg xmlns="http://www.w3.org/2000/svg" width="900" height="520" viewBox="0 0 900 520"><rect width="100%" height="100%" fill="white"/><text x="450" y="34" text-anchor="middle" font-family="Arial" font-size="24" font-weight="700" fill="#111">Latency vs Segment Duration</text><rect x="92" y="62" width="766" height="362" fill="#fbfbfb" stroke="#bdbdbd"/><line x1="92" y1="424.0" x2="858" y2="424.0" stroke="#e4e4e4"/><text x="80" y="429.0" text-anchor="end" font-family="Arial" font-size="14" fill="#222">0</text><line x1="92" y1="378.8" x2="858" y2="378.8" stroke="#e4e4e4"/><text x="80" y="383.8" text-anchor="end" font-family="Arial" font-size="14" fill="#222">1000</text><line x1="92" y1="333.5" x2="858" y2="333.5" stroke="#e4e4e4"/><text x="80" y="338.5" text-anchor="end" font-family="Arial" font-size="14" fill="#222">2000</text><line x1="92" y1="288.3" x2="858" y2="288.3" stroke="#e4e4e4"/><text x="80" y="293.3" text-anchor="end" font-family="Arial" font-size="14" fill="#222">3000</text><line x1="92" y1="243.0" x2="858" y2="243.0" stroke="#e4e4e4"/><text x="80" y="248.0" text-anchor="end" font-family="Arial" font-size="14" fill="#222">4000</text><line x1="92" y1="197.8" x2="858" y2="197.8" stroke="#e4e4e4"/><text x="80" y="202.8" text-anchor="end" font-family="Arial" font-size="14" fill="#222">5000</text><line x1="92" y1="152.5" x2="858" y2="152.5" stroke="#e4e4e4"/><text x="80" y="157.5" text-anchor="end" font-family="Arial" font-size="14" fill="#222">6000</text><line x1="92" y1="107.3" x2="858" y2="107.3" stroke="#e4e4e4"/><text x="80" y="112.3" text-anchor="end" font-family="Arial" font-size="14" fill="#222">7000</text><line x1="92" y1="62.0" x2="858" y2="62.0" stroke="#e4e4e4"/><text x="80" y="67.0" text-anchor="end" font-family="Arial" font-size="14" fill="#222">8000</text><line x1="92.0" y1="424" x2="92.0" y2="431" stroke="#444"/><text x="92.0" y="452" text-anchor="middle" font-family="Arial" font-size="14" fill="#222">1</text><line x1="245.2" y1="424" x2="245.2" y2="431" stroke="#444"/><text x="245.2" y="452" text-anchor="middle" font-family="Arial" font-size="14" fill="#222">2</text><line x1="398.4" y1="424" x2="398.4" y2="431" stroke="#444"/><text x="398.4" y="452" text-anchor="middle" font-family="Arial" font-size="14" fill="#222">3</text><line x1="551.6" y1="424" x2="551.6" y2="431" stroke="#444"/><text x="551.6" y="452" text-anchor="middle" font-family="Arial" font-size="14" fill="#222">4</text><line x1="704.8" y1="424" x2="704.8" y2="431" stroke="#444"/><text x="704.8" y="452" text-anchor="middle" font-family="Arial" font-size="14" fill="#222">5</text><line x1="858.0" y1="424" x2="858.0" y2="431" stroke="#444"/><text x="858.0" y="452" text-anchor="middle" font-family="Arial" font-size="14" fill="#222">6</text><polyline fill="none" stroke="#2563eb" stroke-width="4" points="92.0,243.0 245.2,175.1 398.4,175.1 551.6,175.1 704.8,107.3 858.0,84.6"/><circle cx="92.0" cy="243.0" r="6" fill="#2563eb"/><text x="92.0" y="231.0" text-anchor="middle" font-family="Arial" font-size="13" fill="#111">4000</text><circle cx="245.2" cy="175.1" r="6" fill="#2563eb"/><text x="245.2" y="163.1" text-anchor="middle" font-family="Arial" font-size="13" fill="#111">5500</text><circle cx="398.4" cy="175.1" r="6" fill="#2563eb"/><text x="398.4" y="163.1" text-anchor="middle" font-family="Arial" font-size="13" fill="#111">5500</text><circle cx="551.6" cy="175.1" r="6" fill="#2563eb"/><text x="551.6" y="163.1" text-anchor="middle" font-family="Arial" font-size="13" fill="#111">5500</text><circle cx="704.8" cy="107.3" r="6" fill="#2563eb"/><text x="704.8" y="95.3" text-anchor="middle" font-family="Arial" font-size="13" fill="#111">7000</text><circle cx="858.0" cy="84.6" r="6" fill="#2563eb"/><text x="858.0" y="72.6" text-anchor="middle" font-family="Arial" font-size="13" fill="#111">7500</text><text x="450" y="496" text-anchor="middle" font-family="Arial" font-size="16" fill="#222">Segment duration (s)</text><text transform="translate(22 243) rotate(-90)" text-anchor="middle" font-family="Arial" font-size="16" fill="#222">Latency (ms)</text></svg>